<?xml version="1.0" encoding="utf-8" ?><!-- created by svgstack.com | Attribution is required. --><svg xmlns="http://www.w3.org/2000/svg" xmlns:xlink="http://www.w3.org/1999/xlink" width="1024" height="1024"><path fill="#0C1241" d="M67.69 548.791C75.421 547.879 100.465 543.405 106.43 547.885C91.4408 570.971 88.3271 593.832 93.9586 620.714C95.9456 630.199 99.14 640.461 103.805 649.018C109.41 652.781 115.77 655.601 121.791 658.642L149.592 672.701L243.61 720.534L403.407 802.934C433.105 818.24 462.802 834.308 493.078 848.416L494.173 849.322C491.261 854.429 490.029 861.616 491.612 867.281C493.444 873.835 498.04 877.936 503.715 881.203C499.943 882.029 496.279 882.284 492.487 881.381C482.108 878.909 471.196 871.207 461.585 866.3L383.692 826.265L182.182 722.209L123.963 692.428C114.553 687.648 104.753 683.222 95.5827 678.013C90.2233 674.968 86.9789 671.128 83.8554 665.926C61.7398 629.094 57.3905 589.948 67.69 548.791Z"/><path fill="#3B3D70" d="M936.16 423.055C946.775 428.244 956.462 434.373 960.412 446.122C962.8 453.222 962.095 461.454 958.799 468.189C957.748 470.338 956.256 472.32 954.579 474.019C947.055 481.642 938.07 488.342 930.139 495.627L856.332 562.79L653.453 746.886L557.099 834.672C543.375 847.21 529.987 860.318 516.014 872.55C512.261 875.834 508.265 879.092 503.715 881.203C498.04 877.936 493.444 873.835 491.612 867.281C490.029 861.616 491.261 854.429 494.173 849.322C499.468 843.135 505.687 837.876 511.688 832.405L533.629 812.224L623.552 730.88L825.026 548.131Q881.135 497.844 936.492 446.73C936.276 438.843 935.966 430.944 936.16 423.055Z"/><path fill="#FCC36B" d="M106.43 547.885C112.701 548.311 203.182 595.419 217.884 602.848L416.115 703.29L456.311 723.99C466.877 729.455 481.504 739.034 492.976 741.112C479.054 764.014 473.296 786.507 479.686 813.068C482.641 825.352 488.501 836.703 493.078 848.416C462.802 834.308 433.105 818.24 403.407 802.934L243.61 720.534L149.592 672.701L121.791 658.642C115.77 655.601 109.41 652.781 103.805 649.018C99.14 640.461 95.9456 630.199 93.9586 620.714C88.3271 593.832 91.4408 570.971 106.43 547.885Z"/><path fill="#FEEAB2" d="M595.508 662.276C602.16 656.53 608.511 650.374 615.095 644.536Q652.774 611.264 689.957 577.439L817.353 462.082C856.525 426.059 895.296 389.388 935.668 354.715C936.453 361.399 936.137 368.397 936.126 375.126C936.099 390.992 935.324 407.234 936.16 423.055C935.966 430.944 936.276 438.843 936.492 446.73Q881.135 497.844 825.026 548.131L623.552 730.88L533.629 812.224L511.688 832.405C505.687 837.876 499.468 843.135 494.173 849.322L493.078 848.416C488.501 836.703 482.641 825.352 479.686 813.068C473.296 786.507 479.054 764.014 492.976 741.112Q495.047 741.742 497.157 742.23C501.537 743.198 504.14 742.659 507.89 740.296C537.119 714.254 565.496 687.443 595.508 662.276Z"/><path fill="#DC4A03" d="M896.769 285.575Q910.731 292.334 924.789 298.89C933.575 302.662 954.687 309.642 958.24 318.487C959.893 322.599 958.831 327.036 957.051 330.911C951.837 342.259 943.303 346.216 935.668 354.715C895.296 389.388 856.525 426.059 817.353 462.082L689.957 577.439Q652.774 611.264 615.095 644.536C608.511 650.374 602.16 656.53 595.508 662.276C565.496 687.443 537.119 714.254 507.89 740.296C504.14 742.659 501.537 743.198 497.157 742.23Q495.047 741.742 492.976 741.112C481.504 739.034 466.877 729.455 456.311 723.99L416.115 703.29L217.884 602.848C203.182 595.419 112.701 548.311 106.43 547.885C100.465 543.405 75.421 547.879 67.69 548.791C72.0888 538.649 80.4907 530.909 88.9946 524.108C99.9398 514.183 111.555 504.918 123.044 495.638C164.631 493.888 206.986 500.517 247.776 507.925C331.845 523.193 420.022 546.13 497.518 582.675C512.95 589.952 527.853 598.107 542.674 606.538C570.995 578.25 601.962 552.523 631.704 525.747L797.805 376.017L858.797 320.597C871.547 308.974 884.424 297.646 896.769 285.575Z"/><path fill="#612848" d="M924.789 298.89C933.575 302.662 954.687 309.642 958.24 318.487C959.893 322.599 958.831 327.036 957.051 330.911C951.837 342.259 943.303 346.216 935.668 354.715C895.296 389.388 856.525 426.059 817.353 462.082L689.957 577.439Q652.774 611.264 615.095 644.536C608.511 650.374 602.16 656.53 595.508 662.276C587.982 646.075 579.124 635.121 566.393 622.744C595.419 595.869 625.217 569.737 654.612 543.256L821.237 393.226L883.73 337.229C897.508 325.023 913.209 313.262 924.789 298.89Z"/><path fill="#A21210" d="M88.9946 524.108C109.429 521.818 130.136 520.676 150.658 522.393C167.142 523.773 183.486 526.918 199.666 530.273C281.36 547.212 378.481 584.563 443.779 636.791C472.862 660.052 503.199 691.535 507.491 730.264C507.857 733.564 508.022 736.977 507.89 740.296C504.14 742.659 501.537 743.198 497.157 742.23Q495.047 741.742 492.976 741.112C481.504 739.034 466.877 729.455 456.311 723.99L416.115 703.29L217.884 602.848C203.182 595.419 112.701 548.311 106.43 547.885C100.465 543.405 75.421 547.879 67.69 548.791C72.0888 538.649 80.4907 530.909 88.9946 524.108Z"/><path fill="#612848" d="M123.044 495.638C130.87 487.956 139.857 481.243 148.327 474.266L182.929 445.264L301.399 345.823L461.86 209.64L500.889 176.158C509.518 168.626 517.937 160.75 526.882 153.595C533.389 148.391 539.519 144.363 547.491 141.745C558.281 138.202 572.043 135.314 583.253 138.514C591.217 140.788 597.839 146.195 605.206 149.802C623.21 158.615 641.582 166.802 659.78 175.212L811.346 245.647C839.833 258.887 868.706 271.444 896.769 285.575C884.424 297.646 871.547 308.974 858.797 320.597L797.805 376.017L631.704 525.747C601.962 552.523 570.995 578.25 542.674 606.538C527.853 598.107 512.95 589.952 497.518 582.675C420.022 546.13 331.845 523.193 247.776 507.925C206.986 500.517 164.631 493.888 123.044 495.638Z"/></svg> 